<svg width="77" height="66" viewBox="0 0 77 66" fill="none" xmlns="http://www.w3.org/2000/svg">
<path d="M54.3787 2.50012L6.48874 62.9401M19.0887 6.74298V15.7301M30.4287 44.4601H55.4587C58.9867 45.8671 63.9556 49.5703 67.7087 49.1502C68.9437 48.9555 70.0985 48.4158 71.0398 47.593C71.9811 46.7703 72.6707 45.6981 73.0288 44.5003C73.2288 43.847 73.3726 43.1779 73.4587 42.5003C73.6296 40.505 73.6698 38.5007 73.5789 36.5003V29.1702C73.6697 27.1697 73.6295 25.1654 73.4587 23.1702C73.3702 22.5093 73.2264 21.8571 73.0288 21.2202C72.6691 20.0223 71.9792 18.9499 71.0383 18.1257C70.0975 17.3016 68.9436 16.7591 67.7087 16.5603C63.8276 16.1259 59.1534 19.9599 55.8188 21.7608M3.82874 44.4601H20.6087M48.1386 10.36C44.2188 8.06388 39.8353 6.67347 35.3088 6.29018C33.0241 6.03647 30.7273 5.90614 28.4286 5.90004C22.5186 5.90004 16.1087 6.64004 10.9687 9.90004C4.35866 14.06 2.73874 22.6502 2.54874 30.0202C2.34874 37.6002 2.47876 47.1802 8.81876 52.2802C9.96162 53.1954 11.1985 53.9864 12.5087 54.64M20.6086 57.1701C23.5169 57.6521 26.4608 57.8862 29.4087 57.87C40.0587 57.87 53.7388 55.5602 55.8188 42.7702C56.9688 35.7102 57.6088 24.77 54.4988 17.65" stroke="#E95322" stroke-width="5" stroke-linecap="round" stroke-linejoin="round"/>
</svg>
